# xmcd CD database file
#
# Track frame offsets:
#	150
#	14487
#	33897
#	47622
#	61367
#	71555
#	92712
#	110980
#	130270
#	146780
#	160595
#	178615
#
# Disc length: 2594 seconds
#
# Revision: 3
# Processed by: cddbd v1.4PL0 Copyright (c) Steve Scherf et al.
# Submitted via: CDex 1.51
#
DISCID=a70a200c
DTITLE=Various Artist - Esquire - The Voice of the Soul
DYEAR=1995
DGENRE=Jazz
TTITLE0=Nat Cole Trio - Sweet Lorraine
TTITLE1=June Cristy - Something Cool
TTITLE2=Chet Baker - But Not For Me
TTITLE3=Billie Holiday - Detour Ahead
TTITLE4=Abbey Lincoln - Do Nothin Till You Hear From Me
TTITLE5=Joe Williams - Every Day I Have The Blues
TTITLE6=Nina Simone - I Loves Your Porgy
TTITLE7=Nancy Wilson and Cannonball Adderley - The Masquerade Is Over
TTITLE8=Dinah Washington - I wanna Be Around
TTITLE9=Tony Bennett and Count Basie - Ive Grown Accustomed to Your Face
TTITLE10=Billy Ekstine - Drifting Blues
TTITLE11=Sarah Vaughan - 'Round Midnight
EXTD=YEAR: 1995
EXTT0=
EXTT1=
EXTT2=
EXTT3=
EXTT4=
EXTT5=
EXTT6=
EXTT7=
EXTT8=
EXTT9=
EXTT10=
EXTT11=
PLAYORDER=
